HIERARCHY
ROOT Hips
{
	OFFSET 0.00 0.00 0.00
	CHANNELS 6 Xposition Yposition Zposition Xrotation Yrotation Zrotation
	JOINT Spine
	{
		OFFSET 0.00000 4.88528 0.00000
		CHANNELS 3 Xrotation Yrotation Zrotation
		JOINT Head
		{
			OFFSET 0.00000 16.49416 0.00000
			CHANNELS 3 Xrotation Yrotation Zrotation
			End Site
			{
				OFFSET 0.00000 4.52755 0.00000
			}
		}
		JOINT LeftShoulder
		{
			OFFSET 0.00000 10.66345 0.00000
			CHANNELS 3 Xrotation Yrotation Zrotation
			JOINT LeftArm
			{
				OFFSET 7.53191 0.00000 0.00000
				CHANNELS 3 Xrotation Yrotation Zrotation
				JOINT LeftForeArm
				{
					OFFSET 10.22920 0.00000 0.00000
					CHANNELS 3 Yrotation Zrotation Xrotation
					JOINT LeftHand
					{
						OFFSET 8.67349 0.00000 0.00000
						CHANNELS 3 Xrotation Yrotation Zrotation
						JOINT LeftHandThumb1
						{
							OFFSET 0.00000 0.00000 0.00000
							CHANNELS 3 Xrotation Zrotation Yrotation
							End Site
							{
								OFFSET 0.00000 0.00000 3.93700
							}
						}
						End Site
						{
							OFFSET 3.93700 0.00000 0.00000
						}
					}
				}
			}
		}
		JOINT RightShoulder
		{
			OFFSET 0.00000 10.66345 0.00000
			CHANNELS 3 Xrotation Yrotation Zrotation
			JOINT RightArm
			{
				OFFSET -7.53191 0.00000 0.00000
				CHANNELS 3 Xrotation Yrotation Zrotation
				JOINT RightForeArm
				{
					OFFSET -10.22920 0.00000 0.00000
					CHANNELS 3 Yrotation Zrotation Xrotation
					JOINT RightHand
					{
						OFFSET -8.67349 0.00000 0.00000
						CHANNELS 3 Xrotation Yrotation Zrotation
						JOINT RightHandThumb1
						{
							OFFSET 0.00000 0.00000 0.00000
							CHANNELS 3 Xrotation Zrotation Yrotation
							End Site
							{
								OFFSET 0.00000 0.00000 3.93700
							}
						}
						End Site
						{
							OFFSET -3.93700 0.00000 0.00000
						}
					}
				}
			}
		}
	}
	JOINT LeftUpLeg
	{
		OFFSET 2.67219 0.00000 0.00000
		CHANNELS 3 Xrotation Yrotation Zrotation
		JOINT LeftLeg
		{
			OFFSET 0.00000 -16.26339 0.00000
			CHANNELS 3 Xrotation Yrotation Zrotation
			JOINT LeftFoot
			{
				OFFSET 0.00000 -14.32816 0.00000
				CHANNELS 3 Xrotation Yrotation Zrotation
				JOINT LeftToeBase
				{
					OFFSET 0.00000 -1.30219 4.85985
					CHANNELS 3 Xrotation Yrotation Zrotation
					End Site
					{
						OFFSET 0.00000 0.00000 2.95275
					}
				}
			}
		}
	}
	JOINT RightUpLeg
	{
		OFFSET -2.67219 0.00000 0.00000
		CHANNELS 3 Xrotation Yrotation Zrotation
		JOINT RightLeg
		{
			OFFSET 0.00000 -16.26339 0.00000
			CHANNELS 3 Xrotation Yrotation Zrotation
			JOINT RightFoot
			{
				OFFSET 0.00000 -14.32816 0.00000
				CHANNELS 3 Xrotation Yrotation Zrotation
				JOINT RightToeBase
				{
					OFFSET 0.00000 -1.30219 4.85985
					CHANNELS 3 Xrotation Yrotation Zrotation
					End Site
					{
						OFFSET 0.00000 0.00000 2.95275
					}
				}
			}
		}
	}
}
MOTION
Frames: 7
Frame Time: 0.008333
 -1.8271 32.9619 6.8880 5.3320 2.3792 -1.9061 -7.2558 -6.6014 0.3070 15.1072 -5.2980 0.0951 31.5201 32.0362 19.3270 -74.0202 -4.0600 -28.3447 4.5602 -0.0000 4.3024 0.3646 -6.1266 3.4122 33.1476 -0.0000 26.2537 -8.5671 -3.0251 -31.8584 -21.9068 2.7519 40.7188 0.8805 -0.0000 12.3862 -0.1142 4.8090 1.3622 32.8623 0.0000 -24.3270 2.1600 -2.0515 2.2257 -5.7356 -0.0000 0.0000 -1.4513 14.2617 -15.4272 -4.9145 -0.0000 0.0000 1.7916 1.5737 1.7105 -6.4190 0.0000 0.0000 -3.4426 -15.2899 4.2209 -0.3632 -0.0000 0.0000
 -1.8269 32.9623 6.8908 5.3551 2.3257 -1.9234 -7.2328 -6.6201 0.3165 15.0132 -5.3361 0.0960 31.4311 32.0422 19.3362 -74.0468 -3.9806 -28.1032 4.5524 -0.0000 4.4518 0.3674 -6.0723 3.4685 33.1476 -0.0000 26.2537 -8.6077 -3.0205 -31.9077 -21.8669 2.8246 40.7333 0.9044 -0.0000 12.4856 -0.1061 4.8113 1.2649 32.8623 0.0000 -24.3270 2.1474 -1.9623 2.2418 -5.7499 -0.0000 0.0000 -1.4282 14.2411 -15.4865 -4.9081 -0.0000 0.0000 1.7396 1.6262 1.7305 -6.3661 -0.0000 -0.0000 -3.4938 -15.3256 4.2143 -0.3477 0.0000 -0.0000
 -1.8253 32.9627 6.8923 5.3879 2.2546 -1.9254 -7.2153 -6.5820 0.3153 14.9036 -5.4048 0.1023 31.4151 32.0997 19.3126 -74.1090 -3.9624 -27.9254 4.5108 -0.0000 4.5008 0.3880 -6.0235 3.6920 33.1476 -0.0000 26.2537 -8.6379 -3.0718 -31.9498 -21.8064 2.9562 40.7251 0.9254 -0.0000 12.5628 -0.1026 4.8281 1.2186 32.8623 0.0000 -24.3270 2.1231 -1.8603 2.2381 -5.7624 0.0000 0.0000 -1.3964 14.2161 -15.5077 -4.9187 -0.0000 -0.0000 1.6795 1.6949 1.7306 -6.3209 -0.0000 0.0000 -3.5427 -15.3560 4.2191 -0.2794 -0.0000 -0.0000
 -1.8266 32.9633 6.8945 5.4232 2.1828 -1.9494 -7.1996 -6.5640 0.3285 14.8000 -5.4622 0.1248 31.4430 32.1907 19.2712 -74.2726 -3.8647 -27.7038 4.4288 0.0000 4.6547 0.3797 -6.0342 3.6070 33.1476 -0.0000 26.2537 -8.6974 -3.0857 -31.9966 -21.7076 3.0744 40.7324 0.9778 -0.0000 12.6233 -0.0908 4.7512 1.0962 32.8623 0.0000 -24.3270 2.0939 -1.7337 2.2585 -5.7719 -0.0000 -0.0000 -1.3967 14.1927 -15.5621 -4.8588 -0.0000 0.0000 1.6030 1.7381 1.7560 -6.2440 -0.0000 -0.0000 -3.6093 -15.3505 4.2448 -0.2275 -0.0000 0.0000
 -1.8273 32.9643 6.8962 5.4579 2.0998 -1.9685 -7.1873 -6.5814 0.3420 14.7159 -5.4907 0.1185 31.4271 32.2652 19.2463 -74.3098 -3.7793 -27.4457 4.3471 0.0000 4.7574 0.3696 -5.9018 3.5900 33.1476 -0.0000 26.2537 -8.7198 -3.0426 -32.0203 -21.6283 3.1575 40.7000 1.0443 -0.0000 12.7728 -0.0872 4.8468 1.0318 32.8623 0.0000 -24.3270 2.0685 -1.6258 2.2763 -5.7821 0.0000 -0.0000 -1.3760 14.1818 -15.5893 -4.8351 -0.0000 0.0000 1.5337 1.7925 1.7766 -6.1832 -0.0000 -0.0000 -3.6658 -15.3792 4.3193 -0.1596 -0.0000 -0.0000
 -1.8272 32.9653 6.8979 5.4945 1.9973 -1.9811 -7.1716 -6.5525 0.3479 14.6173 -5.5575 0.1239 31.3732 32.3355 19.2493 -74.4033 -3.6737 -27.1845 4.3134 0.0000 4.9958 0.3690 -5.9686 3.5440 33.1476 -0.0000 26.2537 -8.7670 -3.0222 -32.0522 -21.5252 3.2403 40.6667 1.1325 -0.0000 12.8310 -0.0817 4.7882 0.9790 32.8623 0.0000 -24.3270 2.0477 -1.4992 2.2856 -5.8079 0.0000 0.0000 -1.3408 14.1700 -15.6519 -4.8516 0.0000 -0.0000 1.4582 1.8431 1.7904 -6.1196 0.0000 0.0000 -3.7194 -15.3750 4.3634 -0.1408 0.0000 -0.0000
 -1.8281 32.9667 6.8998 5.5340 1.8878 -1.9935 -7.1617 -6.5106 0.3522 14.5335 -5.6553 0.1209 31.3028 32.3888 19.2538 -74.3978 -3.6534 -26.9329 4.2985 0.0000 5.0016 0.3926 -5.8385 3.8537 33.1476 -0.0000 26.2537 -8.7420 -3.0508 -32.0755 -21.5145 3.2977 40.6373 1.2334 -0.0000 12.9707 -0.0755 4.8417 0.8944 32.8623 0.0000 -24.3270 2.0207 -1.3619 2.2974 -5.8200 0.0000 0.0000 -1.3197 14.1443 -15.6814 -4.8177 -0.0000 0.0000 1.3848 1.9126 1.8040 -6.0662 -0.0000 0.0000 -3.7759 -15.3781 4.4078 -0.0397 0.0000 0.0000
